<svg xmlns="http://www.w3.org/2000/svg" viewBox="0 0 1280 640" width="1280" height="640" role="img" aria-label="LuvStories project card"><title>LuvStories — DUNG30N5 × NOAERTH</title><rect width="1280" height="640" fill="#0a0d12"/><rect x="886" y="212" width="38" height="38" rx="6" fill="amber" fill-opacity="0.04" stroke="amber" stroke-width="1.1" stroke-opacity="0.42"/><rect x="934" y="212" width="38" height="38" rx="6" fill="amber" fill-opacity="0.07" stroke="amber" stroke-width="1.1" stroke-opacity="0.42"/><rect x="982" y="212" width="38" height="38" rx="6" fill="amber" fill-opacity="0.10" stroke="amber" stroke-width="1.1" stroke-opacity="0.42"/><rect x="1030" y="212" width="38" height="38" rx="6" fill="amber" fill-opacity="0.04" stroke="amber" stroke-width="1.1" stroke-opacity="0.42"/><rect x="886" y="260" width="38" height="38" rx="6" fill="amber" fill-opacity="0.07" stroke="amber" stroke-width="1.1" stroke-opacity="0.42"/><rect x="934" y="260" width="38" height="38" rx="6" fill="amber" fill-opacity="0.10" stroke="amber" stroke-width="1.1" stroke-opacity="0.42"/><rect x="982" y="260" width="38" height="38" rx="6" fill="amber" fill-opacity="0.04" stroke="amber" stroke-width="1.1" stroke-opacity="0.42"/><rect x="1030" y="260" width="38" height="38" rx="6" fill="amber" fill-opacity="0.07" stroke="amber" stroke-width="1.1" stroke-opacity="0.42"/><rect x="886" y="308" width="38" height="38" rx="6" fill="amber" fill-opacity="0.10" stroke="amber" stroke-width="1.1" stroke-opacity="0.42"/><rect x="934" y="308" width="38" height="38" rx="6" fill="amber" fill-opacity="0.04" stroke="amber" stroke-width="1.1" stroke-opacity="0.42"/><rect x="982" y="308" width="38" height="38" rx="6" fill="amber" fill-opacity="0.07" stroke="amber" stroke-width="1.1" stroke-opacity="0.42"/><rect x="1030" y="308" width="38" height="38" rx="6" fill="amber" fill-opacity="0.10" stroke="amber" stroke-width="1.1" stroke-opacity="0.42"/><rect x="886" y="356" width="38" height="38" rx="6" fill="amber" fill-opacity="0.04" stroke="amber" stroke-width="1.1" stroke-opacity="0.42"/><rect x="934" y="356" width="38" height="38" rx="6" fill="amber" fill-opacity="0.07" stroke="amber" stroke-width="1.1" stroke-opacity="0.42"/><rect x="982" y="356" width="38" height="38" rx="6" fill="amber" fill-opacity="0.10" stroke="amber" stroke-width="1.1" stroke-opacity="0.42"/><rect x="1030" y="356" width="38" height="38" rx="6" fill="amber" fill-opacity="0.04" stroke="amber" stroke-width="1.1" stroke-opacity="0.42"/><rect x="80" y="150" width="10" height="240" rx="4" fill="amber" opacity="0.9"/><text x="130" y="230" font-family="ui-monospace, SFMono-Regular, Menlo, Monaco, Consolas, 'Liberation Mono', monospace" font-size="22" letter-spacing="5" fill="#f4efe44f">DUNG30N5 × NOAERTH</text><text x="130" y="330" font-family="-apple-system, BlinkMacSystemFont, 'Segoe UI', Inter, Helvetica, Arial, sans-serif" font-size="82" font-weight="700" fill="#f4efe4">LuvStories</text><text x="130" y="384" font-family="-apple-system, BlinkMacSystemFont, 'Segoe UI', Inter, Helvetica, Arial, sans-serif" font-size="27" fill="#f4efe4a8">value entering, allocating, and settling</text><text x="130" y="470" font-family="ui-monospace, SFMono-Regular, Menlo, Monaco, Consolas, 'Liberation Mono', monospace" font-size="18" fill="amber" letter-spacing="3">GENERAL · settlement rails · V6</text></svg>